<svg xmlns="http://www.w3.org/2000/svg" fill="none" viewBox="0 0 50 37" height="37" width="50">
<path fill="#54875C" d="M33.2852 43.0469C22.1914 43.0469 11.1211 43.0469 0.046875 43.0469C0.046875 26.3828 0.046875 9.71875 0.046875 -6.94922C16.707 -6.94922 33.3711 -6.94922 50.0391 -6.94922C50.0391 9.71484 50.0391 26.3789 50.0391 43.0469C44.4648 43.0469 38.8867 43.0469 33.2852 43.0469ZM32.5859 20.8867C30.3125 20.1758 28.043 19.4609 25.7695 18.7539C23.1836 17.9453 20.5938 17.1406 18.0039 16.3398C17.6875 16.2383 17.3672 16.2539 17.0625 16.4141C15.2266 17.3906 13.3906 18.3711 11.5547 19.3477C10.0859 20.1289 8.61328 20.9102 7.14844 21.6992C7.01562 21.7695 6.95703 21.7461 6.89844 21.6211C6.82031 21.4648 6.73438 21.3086 6.65234 21.1523C6.38672 20.6523 5.92578 20.5078 5.42578 20.7734C4.00391 21.5312 2.58203 22.2891 1.16406 23.0508C0.566406 23.3711 0.449219 23.7773 0.765625 24.3672C1.51562 25.7695 2.26562 27.168 3.01172 28.5664C4.26172 30.9141 5.51172 33.2578 6.76562 35.6055C7.04688 36.1289 7.47266 36.2578 8.00391 35.9883C8.18359 35.8984 8.35547 35.8008 8.53516 35.7031C9.79688 35.0312 11.0625 34.3555 12.3281 33.6797C12.8086 33.4219 12.9453 32.9805 12.6992 32.4883C12.6172 32.3242 12.5352 32.1562 12.4414 32C12.3633 31.8672 12.4023 31.8086 12.5352 31.7617C12.8828 31.6367 13.2344 31.5156 13.5742 31.3711C13.7422 31.2969 13.8906 31.3047 14.0586 31.3594C15.9648 31.9531 17.8711 32.5391 19.7773 33.1289C22.6641 34.0156 25.5508 34.9023 28.4375 35.793C28.8516 35.918 29.2344 35.8789 29.6094 35.6484C31.4219 34.5312 33.2344 33.4258 35.0508 32.3164C39.3633 29.6797 43.6758 27.0469 47.9883 24.4102C49.1172 23.7188 49.6797 22.3516 49.3711 21.0664C48.9023 19.1211 46.7227 18.0898 44.9609 19.0312C43.2617 19.9414 41.6016 20.9219 39.9258 21.8672C39.3359 22.2031 38.75 22.5352 38.1562 22.8711C35.6211 19.7187 33.1055 16.5859 30.5547 13.4141C30.707 13.3984 30.8125 13.3867 30.9141 13.375C32.2773 13.2578 33.5664 12.9023 34.7617 12.2305C36.0781 11.4883 37.0977 10.4688 37.6641 9.05078C37.8516 8.58203 37.9609 8.08594 38.1133 7.58203C38.9219 7.58203 39.7539 7.58203 40.5859 7.58594C40.7227 7.58594 40.8086 7.55078 40.8828 7.42969C41.2461 6.85547 41.625 6.29297 41.9922 5.72266C42.0547 5.63281 42.1094 5.53906 42.1875 5.41016C40.7461 5.41016 39.3594 5.41016 37.9648 5.41016C37.8516 4.53906 37.5039 3.78125 36.9414 3.08203C37.0742 3.08203 37.1562 3.08203 37.2422 3.08203C38.3516 3.08203 39.4648 3.07813 40.5742 3.08594C40.7227 3.08594 40.8125 3.04297 40.8906 2.91406C41.0898 2.58594 41.3086 2.26562 41.5195 1.94531C41.7344 1.61328 41.9492 1.28125 42.1719 0.933594C42.1133 0.925781 42.0938 0.917969 42.0703 0.917969C37.3398 0.917969 32.6094 0.917969 27.8789 0.921875C27.8008 0.921875 27.6953 0.988281 27.6484 1.05859C27.3398 1.50781 27.043 1.96875 26.7461 2.42578C26.6094 2.63672 26.4766 2.84766 26.3281 3.08203C26.5234 3.08203 26.6758 3.07813 26.8281 3.08203C28.2344 3.11719 29.6367 3.11719 31.0391 3.19922C31.9219 3.25 32.7656 3.50391 33.5 4.04297C33.9805 4.39453 34.332 4.84766 34.5781 5.41797C34.4531 5.41797 34.3633 5.41797 34.2695 5.41797C32.1641 5.41797 30.0586 5.42187 27.9492 5.41797C27.7969 5.41406 27.7031 5.46094 27.6172 5.59375C27.2891 6.11719 26.9453 6.62891 26.6094 7.14844C26.5195 7.28516 26.4336 7.42187 26.3242 7.58984C29.1953 7.58984 32.0195 7.58984 34.8555 7.58984C34.8555 7.64844 34.8633 7.69141 34.8594 7.73828C34.832 8.71875 34.4336 9.54297 33.7422 10.2188C32.7891 11.1484 31.5977 11.5469 30.3086 11.6445C29.3359 11.7227 28.3516 11.6914 27.3711 11.7109C27.2812 11.7109 27.1914 11.7109 27.0781 11.7109C27.0781 12.3516 27.0742 12.9688 27.0859 13.582C27.0859 13.7031 27.1328 13.8437 27.207 13.9336C28.4805 15.5508 29.7656 17.1602 31.0469 18.7695C31.5938 19.457 32.1367 20.1484 32.6484 20.8672C32.6406 20.875 32.6289 20.8828 32.5859 20.8867Z"></path>
<path fill="#54875C" d="M48.332 21.4531C48.4336 22.4219 48.043 23.0977 47.2344 23.5898C44.8711 25.0156 42.5234 26.4648 40.1719 27.9023C37.4024 29.5937 34.6328 31.2812 31.8633 32.9727C30.9375 33.5391 30.0156 34.1133 29.082 34.6719C28.9805 34.7305 28.8125 34.75 28.6992 34.7148C26.5625 34.0664 24.4297 33.4023 22.293 32.7461C19.6524 31.9336 17.0078 31.1289 14.3672 30.3086C13.957 30.1797 13.5742 30.1758 13.1758 30.3516C12.8086 30.5078 12.4219 30.625 12.0547 30.7773C11.8867 30.8516 11.8125 30.8086 11.7344 30.6562C10.8477 28.9805 9.95313 27.3125 9.06251 25.6367C8.59376 24.7617 8.12891 23.8828 7.66016 23.0078C7.52345 22.7539 7.52735 22.7305 7.77345 22.6016C9.02345 21.9336 10.2774 21.2734 11.5274 20.6055C13.5 19.5547 15.4727 18.5 17.4453 17.457C17.5469 17.4062 17.6992 17.3984 17.8086 17.4297C20.9297 18.3984 24.0469 19.375 27.1641 20.3477C29.293 21.0117 31.4258 21.6797 33.5586 22.3359C34.1758 22.5234 34.8203 23.3477 34.7578 24.0547C34.6875 24.8164 34.1211 25.5039 33.3867 25.6367C32.9453 25.7187 32.5313 25.582 32.1133 25.4648C29.6719 24.7891 27.2305 24.1172 24.7891 23.4414C24.2031 23.2812 23.6172 23.1172 23.0313 22.957C22.6641 22.8594 22.3711 23 22.293 23.3086C22.207 23.6406 22.3828 23.918 22.7461 24.0195C23.918 24.3398 25.0938 24.6602 26.2656 24.9844C28.2852 25.5391 30.3008 26.1094 32.3281 26.6523C33.2656 26.9023 34.1133 26.6914 34.8867 26.082C35.3008 25.7578 35.7695 25.4922 36.2266 25.2305C38.6172 23.8711 41.0117 22.5156 43.4063 21.1602C44.0469 20.7969 44.6875 20.4258 45.3359 20.0625C46.582 19.3672 47.9844 20.0078 48.332 21.4531Z"></path>
<path fill="#55875D" d="M10.7734 33.2656C9.78125 33.7969 8.80469 34.3203 7.82812 34.8438C7.69922 34.9141 7.63672 34.9023 7.5625 34.7617C6.24219 32.2734 4.91406 29.7891 3.58594 27.3047C3.02734 26.2578 2.46875 25.2109 1.90234 24.168C1.80859 24 1.83203 23.9297 2.00781 23.8359C3.1914 23.2148 4.375 22.582 5.55078 21.9453C5.72265 21.8516 5.79687 21.8789 5.88672 22.0469C7.75781 25.5703 9.64062 29.0859 11.5234 32.6016C11.6094 32.7656 11.5859 32.8438 11.418 32.9219C11.2031 33.0234 10.9961 33.1445 10.7734 33.2656Z"></path>
<path fill="#54875C" d="M32.6641 20.8516C32.6953 20.8594 32.707 20.8828 32.7227 20.9062C32.6953 20.9062 32.668 20.9102 32.6289 20.9023C32.6289 20.8828 32.6406 20.875 32.6641 20.8516Z"></path>
</svg>
