<svg xmlns="http://www.w3.org/2000/svg" fill="none" viewBox="0 0 36 36" height="36" width="36">
<path fill="#FDFEFD" d="M31.0156 20.668C31.0156 22.6172 31 24.5469 31.0273 26.4766C31.0312 26.9922 30.8125 27.2734 30.3867 27.5117C29.3398 28.0898 28.3086 28.707 27.2656 29.3047C25.9961 30.0391 24.7187 30.7656 23.4492 31.5C22.2461 32.1992 21.043 32.9063 19.8398 33.6016C18.7461 34.2344 17.6406 34.8398 16.5586 35.4883C16.1914 35.707 15.8398 35.8984 15.418 35.7656C15.1758 35.6875 14.957 35.5312 14.7344 35.4023C13.3867 34.6289 12.0391 33.8594 10.6914 33.082C9.28125 32.2656 7.87109 31.4414 6.46094 30.625C5.14062 29.8633 3.82031 29.1094 2.5 28.3516C1.98437 28.0547 1.47656 27.75 0.957031 27.4687C0.5625 27.2539 0.398437 26.9531 0.402343 26.4961C0.410155 21.0039 0.410155 15.5117 0.402343 10.0195C0.402343 9.58594 0.562499 9.30859 0.949218 9.09375C1.98437 8.51953 3 7.90625 4.02344 7.3164C5.32422 6.5664 6.625 5.82031 7.92578 5.07031C8.99219 4.45312 10.0508 3.82812 11.1172 3.21484C12.332 2.51562 13.5469 1.82422 14.7617 1.1289C14.8945 1.05469 15.0273 0.97656 15.1602 0.894529C15.5352 0.660154 15.9102 0.675779 16.2812 0.890623C17.2305 1.43359 18.1719 1.98437 19.1172 2.53125C20.8359 3.51953 22.5586 4.50781 24.2773 5.5C25.6211 6.27734 26.9609 7.0664 28.3047 7.84765C29.0234 8.26172 29.7461 8.67187 30.4688 9.07812C30.8438 9.28515 31.0273 9.55859 31.0234 10.0195C31.0078 13.5625 31.0156 17.1016 31.0156 20.668ZM14.9336 30.457C14.9336 26.6328 14.9336 22.8047 14.9375 18.9766C14.9375 18.8359 14.9297 18.7344 14.7695 18.6484C14.0391 18.2461 13.3281 17.8203 12.6094 17.4062C11.8359 16.9609 11.0625 16.5117 10.2891 16.0664C9.46094 15.5898 8.63281 15.1172 7.80859 14.6406C7.05469 14.2031 6.30859 13.7617 5.55469 13.3242C4.62891 12.7891 3.70312 12.2578 2.77734 11.7266C2.52344 11.5781 2.26562 11.4375 1.98047 11.2812C1.98047 11.4219 1.98047 11.5039 1.98047 11.5898C1.98047 16.3047 1.98437 21.0195 1.97656 25.7344C1.97656 26.0273 2.01172 26.2266 2.31641 26.3867C3.07812 26.7891 3.80859 27.2461 4.55469 27.6797C5.44922 28.1953 6.34375 28.7031 7.23828 29.2148C8.15625 29.7461 9.07422 30.2812 9.99609 30.8125C10.8203 31.2891 11.6523 31.7617 12.4766 32.2344C13.1562 32.6289 13.8359 33.0234 14.5156 33.4141C14.6445 33.4922 14.7773 33.5625 14.9336 33.6484C14.9336 32.5703 14.9336 31.5391 14.9336 30.457ZM25.8398 28.2578C26.0508 28.1445 26.2578 28.0312 26.4648 27.9141C27.3828 27.3828 28.3008 26.8477 29.2227 26.3242C29.3828 26.2344 29.4453 26.1367 29.4453 25.9453C29.4414 21.1562 29.4414 16.3672 29.4414 11.5742C29.4414 11.4922 29.4414 11.4102 29.4414 11.2773C29.1445 11.4453 28.8867 11.5937 28.6289 11.7422C27.707 12.2695 26.7891 12.8008 25.8672 13.3242C25.6211 13.4648 25.4766 13.6094 25.4805 13.9414C25.5039 15.957 25.4883 17.9687 25.4961 19.9844C25.4961 20.2461 25.375 20.418 25.1914 20.5664C25.0977 20.6406 24.9922 20.7109 24.8828 20.7695C23.9961 21.2812 23.1055 21.7773 22.2227 22.2969C21.6133 22.6562 20.8828 22.3164 20.8945 21.5391C20.9258 19.8516 20.9062 18.1602 20.9062 16.4727C20.9062 16.3945 20.9062 16.3164 20.9062 16.207C20.5742 16.3945 20.2891 16.5547 20.0039 16.7227C18.8906 17.3633 17.7813 18.0117 16.6641 18.6484C16.543 18.7187 16.4922 18.7891 16.4922 18.9297C16.4961 23.7695 16.4961 28.6055 16.4961 33.4414C16.4961 33.5039 16.5078 33.5664 16.5156 33.6523C17.1914 33.2617 17.8359 32.8906 18.4805 32.5195C19.4062 31.9844 20.332 31.4492 21.2578 30.9141C21.9688 30.5 22.6836 30.0898 23.3945 29.6758C24.1992 29.2109 25.0039 28.7422 25.8398 28.2578ZM15.1875 11.9648C14.9414 11.8203 14.6914 11.6836 14.4453 11.5391C13.4336 10.9531 12.4258 10.3633 11.4141 9.78125C10.1133 9.03125 8.8125 8.28906 7.51953 7.52734C7.28516 7.39062 7.10937 7.38281 6.87109 7.52344C5.85547 8.1289 4.82422 8.71484 3.80078 9.30469C3.47656 9.49219 3.15625 9.67969 2.80859 9.8789C2.88672 9.93359 2.92969 9.96484 2.97266 9.99219C4.35937 10.7891 5.75 11.5781 7.13672 12.3789C8.28516 13.0352 9.42578 13.7031 10.5703 14.3672C12.1055 15.2578 13.6484 16.1445 15.1758 17.0469C15.5234 17.2539 15.8359 17.4102 16.1836 17.0742C16.207 17.0547 16.2383 17.0469 16.2656 17.0312C17.2031 16.4883 18.1445 15.9453 19.082 15.3984C19.4141 15.207 19.7461 15.0117 20.1016 14.8047C19.8281 14.6484 19.5898 14.5117 19.3516 14.3711C18.7539 14.0234 18.1562 13.6719 17.5547 13.3242C16.7773 12.875 15.9961 12.4258 15.1875 11.9648ZM15.2656 2.6875C14.1172 3.35156 12.9648 4.01953 11.7852 4.69922C11.9023 4.76172 11.9805 4.79687 12.0508 4.83984C12.8047 5.27734 13.5508 5.71875 14.3047 6.15625C15.2109 6.67969 16.1211 7.19531 17.0273 7.71875C17.8867 8.21484 18.7422 8.71484 19.6016 9.21094C20.4883 9.72265 21.3789 10.2266 22.2617 10.7383C23.0234 11.1758 23.7813 11.6172 24.5391 12.0586C24.668 12.1367 24.7695 12.125 24.8945 12.0508C25.8945 11.4687 26.8945 10.8945 27.8945 10.3203C28.1289 10.1836 28.3594 10.0391 28.625 9.88281C28.3438 9.71484 28.1016 9.5664 27.8555 9.42578C26.8477 8.84765 25.8398 8.27344 24.8359 7.6914C23.9531 7.1875 23.0742 6.67969 22.1953 6.17187C21.2305 5.61328 20.2617 5.05859 19.2969 4.5C18.2305 3.88672 17.1484 3.29297 16.1055 2.64453C15.7812 2.44531 15.5586 2.45312 15.2656 2.6875ZM11.6797 6.49219C11.2148 6.21875 10.7539 5.94922 10.2852 5.67969C10.2422 5.65625 10.1719 5.63672 10.1406 5.65625C9.69922 5.90234 9.26172 6.15625 8.80078 6.42187C9.23437 6.67187 9.64062 6.90625 10.0469 7.14062C10.6172 7.47265 11.1875 7.80859 11.7617 8.14062C12.6523 8.65234 13.5469 9.16406 14.4414 9.67578C15.3594 10.207 16.2773 10.7422 17.1953 11.2734C18.082 11.7852 18.9687 12.2969 19.8555 12.8047C20.4336 13.1367 21.0156 13.4687 21.5977 13.793C21.6563 13.8281 21.7617 13.832 21.8164 13.8008C22.2422 13.5742 22.6563 13.332 23.1016 13.082C23.043 13.0469 23.0117 13.0273 22.9805 13.0117C22.4219 12.6875 21.8633 12.3633 21.3047 12.0391C20.7617 11.7227 20.2148 11.4062 19.668 11.0898C18.7617 10.5703 17.8555 10.0508 16.9492 9.52734C16.0508 9.00781 15.1523 8.48828 14.2539 7.96875C13.4062 7.48047 12.5586 6.99609 11.6797 6.49219ZM23.9297 18.0508C23.9297 16.8633 23.9297 15.6758 23.9297 14.4531C23.5117 14.6992 23.1445 14.9375 22.7539 15.1328C22.5625 15.2305 22.5195 15.3477 22.5195 15.543C22.5273 17.0234 22.5234 18.5039 22.5234 19.9805C22.5234 20.0625 22.5234 20.1445 22.5234 20.2578C22.9766 20 23.3984 19.7656 23.8125 19.5195C23.8711 19.4805 23.9219 19.375 23.9258 19.3008C23.9375 18.8984 23.9297 18.4961 23.9297 18.0508Z"></path>
<path fill="#FEFEFE" d="M32.8594 0.628906C32.6016 1.01953 32.3477 1.41406 32.082 1.80469C32.0039 1.92188 31.9609 2.01562 32.1211 2.10156C32.1953 2.14062 32.25 2.21094 32.3242 2.25C34.4336 3.42969 35.6211 5.23047 35.7305 7.64062C35.8203 9.61328 34.9687 11.2305 33.4766 12.5C33.1016 12.8203 32.6484 13.0586 32.2305 13.332C32.1641 13.3711 32.0781 13.3828 32.0586 13.3906C32.4219 12.8945 32.8437 12.3906 33.1875 11.8398C33.6914 11.0352 33.9062 10.1367 33.8125 9.18359C33.6797 7.75781 32.8906 6.80078 31.6172 6.21875C31.2422 6.04297 30.832 5.94531 30.4414 5.80859C30.3008 5.75781 30.2187 5.80078 30.1484 5.93359C29.9219 6.35156 29.6797 6.76562 29.4453 7.18359C29.4102 7.24609 29.3711 7.30859 29.3203 7.39453C29.0547 6.6875 28.8125 6.00781 28.543 5.33984C28.2773 4.68359 27.9844 4.03906 27.707 3.38672C27.6719 3.30859 27.6406 3.23047 27.6133 3.14844C27.5273 2.875 27.5781 2.75391 27.8398 2.62891C29.1836 1.96875 30.543 1.35937 31.9648 0.886719C32.2422 0.792969 32.5195 0.695312 32.8203 0.605469C32.8477 0.613281 32.8555 0.621094 32.8594 0.628906Z"></path>
</svg>
