<svg xmlns="http://www.w3.org/2000/svg" fill="none" viewBox="0 0 14 14" height="14" width="14">
<g clip-path="url(#clip0_253_5340)">
<path stroke-linejoin="round" stroke-linecap="round" stroke-miterlimit="10" stroke-width="0.7" stroke="#1F9531" d="M13.2184 7.67646C11.673 6.85525 9.83279 7.14714 8.61621 8.271"></path>
<path stroke-linejoin="round" stroke-linecap="round" stroke-miterlimit="10" stroke-width="0.7" stroke="#1F9531" d="M6.09791 1.36725C6.80214 2.69252 6.58183 4.26273 5.66309 5.33887"></path>
<path stroke-linejoin="round" stroke-linecap="round" stroke-miterlimit="10" stroke-width="0.7" stroke="#1F9531" d="M9.89588 10.3704L0.808732 13.7014C0.490834 13.818 0.182042 13.5092 0.298581 13.1913L3.62961 4.10412C3.72958 3.83142 4.07871 3.75445 4.28408 3.95983L10.0402 9.71594C10.2456 9.92132 10.1686 10.2704 9.89588 10.3704Z"></path>
<path stroke-linejoin="round" stroke-linecap="round" stroke-miterlimit="10" stroke-width="0.7" stroke="#1F9531" d="M2.99136 5.98726L4.63204 7.62793"></path>
<path stroke-linejoin="round" stroke-linecap="round" stroke-miterlimit="10" stroke-width="0.7" stroke="#1F9531" d="M2.51755 7.33931L6.66066 11.4824"></path>
<path stroke-linejoin="round" stroke-linecap="round" stroke-miterlimit="10" stroke-width="0.7" stroke="#1F9531" d="M1.61694 9.75894L4.24131 12.3833"></path>
<path stroke-linejoin="round" stroke-linecap="round" stroke-miterlimit="10" stroke-width="0.7" stroke="#1F9531" d="M1.08316 11.0511L2.94907 12.917"></path>
<path stroke-linejoin="round" stroke-linecap="round" stroke-miterlimit="10" stroke-width="0.7" stroke="#1F9531" d="M8.24673 1.90869C8.24673 1.52831 8.55509 1.21996 8.93547 1.21996C9.31584 1.21996 9.6242 0.911605 9.6242 0.531227"></path>
<path stroke-linejoin="round" stroke-linecap="round" stroke-miterlimit="10" stroke-width="0.7" stroke="#1F9531" d="M12.1132 3.0492C11.7154 3.0492 11.393 3.37166 11.393 3.76946C11.393 4.16725 11.0705 4.48975 10.6727 4.48975"></path>
<path stroke-linejoin="round" stroke-linecap="round" stroke-miterlimit="10" stroke-width="0.7" stroke="#1F9531" d="M13.7265 5.29053C13.7265 5.62275 13.4572 5.89209 13.125 5.89209C12.7927 5.89209 12.5234 5.62275 12.5234 5.29053C12.5234 4.9583 12.7927 4.68897 13.125 4.68897C13.4572 4.68897 13.7265 4.9583 13.7265 5.29053Z"></path>
<path stroke-linejoin="round" stroke-linecap="round" stroke-miterlimit="10" stroke-width="0.7" stroke="#1F9531" d="M9.21777 3.76953C9.21777 4.10176 8.94843 4.37109 8.61621 4.37109C8.28398 4.37109 8.01465 4.10176 8.01465 3.76953C8.01465 3.43731 8.28398 3.16797 8.61621 3.16797C8.94843 3.16797 9.21777 3.43731 9.21777 3.76953Z"></path>
<path stroke-linejoin="round" stroke-linecap="round" stroke-miterlimit="10" stroke-width="0.7" stroke="#1F9531" d="M4.10156 0.875002C4.10156 1.20723 3.83222 1.47656 3.5 1.47656C3.16777 1.47656 2.89844 1.20723 2.89844 0.875002C2.89844 0.542776 3.16777 0.273441 3.5 0.273441C3.83222 0.273441 4.10156 0.542776 4.10156 0.875002Z"></path>
<path stroke-linejoin="round" stroke-linecap="round" stroke-miterlimit="10" stroke-width="0.7" stroke="#1F9531" d="M12.4375 10.0503L12.1797 9.7925"></path>
<path stroke-linejoin="round" stroke-linecap="round" stroke-miterlimit="10" stroke-width="0.7" stroke="#1F9531" d="M13.4687 11.0816L13.7265 11.3394"></path>
<path stroke-linejoin="round" stroke-linecap="round" stroke-miterlimit="10" stroke-width="0.7" stroke="#1F9531" d="M13.4687 10.0503L13.7265 9.7925"></path>
<path stroke-linejoin="round" stroke-linecap="round" stroke-miterlimit="10" stroke-width="0.7" stroke="#1F9531" d="M12.4375 11.0816L12.1797 11.3394"></path>
<path stroke-linejoin="round" stroke-linecap="round" stroke-miterlimit="10" stroke-width="0.7" stroke="#1F9531" d="M13.4687 0.53125L13.7265 0.273454"></path>
<path stroke-linejoin="round" stroke-linecap="round" stroke-miterlimit="10" stroke-width="0.7" stroke="#1F9531" d="M12.4375 1.56252L12.1797 1.82031"></path>
<path stroke-linejoin="round" stroke-linecap="round" stroke-miterlimit="10" stroke-width="0.7" stroke="#1F9531" d="M13.4687 1.56252L13.7265 1.82031"></path>
<path stroke-linejoin="round" stroke-linecap="round" stroke-miterlimit="10" stroke-width="0.7" stroke="#1F9531" d="M12.4375 0.53125L12.1797 0.273454"></path>
<path stroke-linejoin="round" stroke-linecap="round" stroke-miterlimit="10" stroke-width="0.7" stroke="#1F9531" d="M6.37216 9.36811L8.01284 11.0088"></path>
<path stroke-linejoin="round" stroke-linecap="round" stroke-miterlimit="10" stroke-width="0.7" stroke="#1F9531" d="M7.78931 7.46484L8.70417 6.54998"></path>
<path stroke-linejoin="round" stroke-linecap="round" stroke-miterlimit="10" stroke-width="0.7" stroke="#1F9531" d="M9.68481 5.56982L9.48657 5.76807"></path>
</g>
<defs>
<clipPath id="clip0_253_5340">
<rect fill="white" height="14" width="14"></rect>
</clipPath>
</defs>
</svg>
