<svg xmlns="http://www.w3.org/2000/svg" fill="none" viewBox="0 0 50 31" height="31" width="50">
<path fill="#FDFDFD" d="M31.4805 0.433594C37.0586 0.433594 42.6133 0.433594 48.1719 0.433594C48.2383 0.433594 48.3086 0.433594 48.3789 0.433594C49.0859 0.441406 49.4297 0.78125 49.4297 1.49219C49.4297 9.32422 49.4297 17.1563 49.4297 24.9883C49.4297 25.6992 49.0859 26.043 48.3789 26.043C46.5703 26.0469 44.7656 26.0469 42.9609 26.0391C42.75 26.0391 42.6875 26.1055 42.6641 26.3086C42.3516 28.7578 40.293 30.6406 37.8516 30.7227C35.3711 30.8086 33.1914 29.082 32.7148 26.6602C32.6289 26.2266 32.6289 26.2266 32.1875 26.2266C29.2422 26.2461 26.293 26.2656 23.3477 26.2891C23.2109 26.293 23.0742 26.3633 22.9375 26.4023C22.7734 26.4453 22.6133 26.5234 22.4492 26.5312C21.3633 26.582 20.2773 26.6289 19.1914 26.6602C18.9453 26.668 18.8359 26.7305 18.7734 26.9844C18.25 29.0664 16.4375 30.5977 14.3086 30.7812C11.9883 30.9805 9.76171 29.4727 9.08203 27.2305C9.01953 27.0273 8.94531 26.9531 8.72265 26.957C6.42187 27.0078 4.125 27.0312 1.82812 27.0898C0.996089 27.1094 0.574214 26.793 0.597651 25.8594C0.64062 23.8594 0.874995 21.9023 1.69531 20.0586C3.03906 17.0391 5.36328 15.2266 8.5664 14.5156C8.78515 14.4688 8.90625 14.3711 9 14.1719C10.2422 11.5156 11.5 8.87109 12.7422 6.21484C12.9766 5.71875 13.3359 5.48828 13.8906 5.49609C16.3359 5.52344 18.7812 5.53125 21.2266 5.55859C21.4492 5.5625 21.5117 5.50391 21.5117 5.28125C21.5 4.06641 21.5039 2.85547 21.5039 1.64453C21.5078 0.734375 21.8086 0.433594 22.7109 0.433594C25.625 0.433594 28.543 0.433594 31.4805 0.433594ZM34.3125 21.8438C35.2109 21.0469 36.2617 20.6055 37.4609 20.5664C39.8242 20.4961 41.8086 21.9375 42.5039 24.2148C42.5586 24.3945 42.6289 24.4531 42.8203 24.4531C44.4023 24.4453 45.9805 24.4492 47.5625 24.4492C47.6445 24.4492 47.7266 24.4414 47.832 24.4375C47.832 24.3125 47.832 24.2148 47.832 24.1172C47.832 16.8555 47.832 9.59766 47.832 2.33594C47.832 2.03906 47.832 2.03906 47.5312 2.03906C39.4844 2.03906 31.4375 2.03906 23.3906 2.03125C23.1523 2.03125 23.0977 2.09766 23.0977 2.32812C23.1016 9.6875 23.1016 17.0469 23.0977 24.4102C23.0977 24.6289 23.1484 24.6953 23.375 24.6914C26.418 24.668 29.457 24.6484 32.4961 24.6367C32.6797 24.6367 32.7305 24.5586 32.7656 24.4062C33.0117 23.4062 33.5273 22.5625 34.3125 21.8438ZM17.4609 22.1094C18.2305 22.8906 18.707 23.8242 18.8789 24.9062C18.9062 25.0781 18.9727 25.0977 19.1211 25.0898C19.8203 25.0508 20.5234 25.0156 21.2227 25.0039C21.4414 25 21.5117 24.9453 21.5117 24.7188C21.5039 18.9648 21.5039 13.207 21.5039 7.45312C21.5039 7.36328 21.5039 7.27344 21.5039 7.16406C21.4102 7.15625 21.3437 7.14844 21.2773 7.14844C20.1133 7.13281 18.9492 7.11719 17.7812 7.10547C17.3125 7.10156 17.375 7.04297 17.3789 7.50781C17.3945 9.82031 17.418 12.1328 17.4297 14.4492C17.4375 15.2383 16.9805 15.6836 16.1992 15.6875C14.3516 15.707 12.5 15.7227 10.6484 15.7422C10.5625 15.7422 10.4766 15.7461 10.3945 15.7617C10.0586 15.832 9.72656 15.9258 9.38671 15.9805C6.96093 16.375 5.01171 17.5234 3.70312 19.6406C2.65625 21.3281 2.30078 23.2109 2.20703 25.1602C2.1914 25.4805 2.19921 25.4844 2.51171 25.4766C4.44531 25.4453 6.38281 25.4102 8.3164 25.375C8.82031 25.3672 8.8125 25.3633 8.91015 24.8711C9.30859 22.8828 10.4375 21.4922 12.375 20.8711C14.2773 20.2617 15.9805 20.7227 17.4609 22.1094ZM35.9023 28.8086C36.3945 29.0859 36.9219 29.25 37.4883 29.2695C39.832 29.3477 41.5781 27.3438 41.2031 25.0039C40.8789 22.9805 38.8164 21.6172 36.832 22.1133C35.3516 22.4805 34.3125 23.6445 34.0859 25.1953C33.8789 26.5898 34.5937 28.0273 35.9023 28.8086ZM16.7383 27.9258C17.3867 27.0859 17.5977 26.125 17.4375 25.0938C17.1211 23.0742 15.1758 21.7461 13.1602 22.1484C11.207 22.5391 9.90624 24.5703 10.3867 26.5156C10.7461 27.957 11.6602 28.9102 13.1094 29.2383C14.5547 29.5625 15.7695 29.0938 16.7383 27.9258ZM15.832 11.4219C15.8164 10.0508 15.7969 8.67578 15.7852 7.30469C15.7852 7.14453 15.7344 7.09375 15.5742 7.09375C15.1523 7.10547 14.7266 7.10547 14.3008 7.08984C14.1328 7.08594 14.0586 7.15234 13.9922 7.29688C12.957 9.5 11.918 11.7031 10.8789 13.9062C10.8477 13.9727 10.8203 14.0391 10.7812 14.125C10.8672 14.1328 10.918 14.1445 10.9727 14.1406C12.5273 14.125 14.0859 14.1094 15.6406 14.0977C15.8164 14.0938 15.8398 14.0195 15.8398 13.8711C15.832 13.0703 15.832 12.2695 15.832 11.4219Z"></path>
<path fill="#FEFEFE" d="M25.3086 15.0312C25.4258 14.9961 25.5312 14.9531 25.6328 14.9531C31.1094 14.9492 36.582 14.9492 42.0586 14.9492C42.418 14.9492 42.5391 15.0742 42.5391 15.4414C42.5391 15.6484 42.5391 15.8555 42.5391 16.0664C42.5352 16.3984 42.4062 16.5273 42.082 16.5352C42.0273 16.5352 41.9727 16.5352 41.918 16.5352C36.5273 16.5352 31.1367 16.5352 25.7461 16.5352C25.2578 16.5352 25.1719 16.4453 25.1719 15.957C25.1719 15.7617 25.1562 15.5703 25.1758 15.3789C25.1875 15.2656 25.2539 15.1562 25.3086 15.0312Z"></path>
<path fill="#FEFEFE" d="M29.4922 10.1367C32.4766 10.1367 35.4375 10.1367 38.4023 10.1367C38.8437 10.1367 38.9414 10.2344 38.9414 10.6797C38.9414 10.8945 38.9453 11.1133 38.9375 11.3281C38.9297 11.5742 38.793 11.707 38.5469 11.7188C38.5 11.7188 38.4531 11.7188 38.4062 11.7188C34.1406 11.7188 29.875 11.7188 25.6094 11.7188C25.1367 11.7188 25.0469 11.625 25.0469 11.1484C25.0469 10.9648 25.0469 10.7813 25.0469 10.5938C25.0508 10.2617 25.1758 10.1367 25.5117 10.1367C26.8281 10.1328 28.1484 10.1367 29.4922 10.1367Z"></path>
<path fill="#FEFEFE" d="M28.8906 6.90625C27.8008 6.90625 26.7383 6.90625 25.6719 6.90625C25.2812 6.90234 25.1719 6.79297 25.1719 6.39453C25.168 6.16797 25.168 5.94531 25.1719 5.72266C25.1758 5.46094 25.3125 5.32422 25.5742 5.32422C27.7812 5.32031 29.9844 5.32031 32.1914 5.32422C32.4648 5.32422 32.5977 5.46094 32.6016 5.73828C32.6055 5.97656 32.6016 6.21875 32.6016 6.45703C32.5977 6.77344 32.4687 6.90234 32.1484 6.90234C31.0703 6.90625 29.9922 6.90625 28.8906 6.90625Z"></path>
</svg>
