<svg xmlns="http://www.w3.org/2000/svg" fill="none" viewBox="0 0 627 85" height="85" width="627">
<path fill="#010101" d="M137.21 11.4101C136.92 12.1601 136.78 13.1301 136.78 14.3301C136.78 15.7801 136.97 17.1401 137.36 18.4101C137.75 19.6801 138.21 20.3201 138.74 20.3201C137.77 21.0201 136.88 21.3701 136.05 21.3701C134.98 21.3701 134.13 20.8801 133.47 19.9101C132.82 18.9401 132.08 17.4501 131.26 15.4601C130.73 14.0101 130.23 12.9301 129.77 12.2101C129.31 11.4901 128.79 11.1201 128.21 11.1201H116.38V56.9201C116.38 57.9201 116.67 58.7701 117.25 59.4701C117.83 60.1701 118.58 60.6201 119.5 60.8201L122.04 61.3401V62.0101H102V61.3401L104.54 60.8201C105.46 60.6201 106.21 60.1701 106.79 59.4701C107.37 58.7701 107.66 57.9201 107.66 56.9201V11.1201H95.83C95.25 11.1201 94.73 11.4801 94.27 12.2101C93.81 12.9301 93.31 14.0201 92.78 15.4601C91.96 17.4601 91.22 18.9401 90.57 19.9101C89.92 20.8801 89.06 21.3701 87.99 21.3701C87.17 21.3701 86.27 21.0201 85.3 20.3201C85.83 20.3201 86.29 19.6801 86.68 18.4101C87.07 17.1401 87.26 15.7801 87.26 14.3301C87.26 13.1301 87.11 12.1601 86.83 11.4101C86.54 10.6601 86.1 10.2901 85.52 10.2901V9.62006H138.51V10.2901C137.93 10.2901 137.49 10.6601 137.2 11.4101H137.21Z"></path>
<path fill="#010101" d="M178.98 61.33V62H161.27V61.33L163.08 60.8801C163.95 60.6301 164.66 60.17 165.22 59.5C165.78 58.83 166.05 58.01 166.05 57.07V37.69C166.05 34.6 165.51 32.2 164.42 30.51C163.33 28.81 161.82 27.96 159.88 27.96C158.72 27.96 157.47 28.36 156.14 29.16C154.81 29.96 153.71 30.99 152.84 32.26C151.97 33.53 151.53 34.84 151.53 36.19V57.07C151.53 58.02 151.81 58.83 152.37 59.5C152.93 60.17 153.64 60.6301 154.51 60.8801L156.32 61.33V62H138.61V61.33L140.79 60.8801C141.71 60.6801 142.45 60.22 143 59.5C143.55 58.78 143.84 57.94 143.84 56.99V14.6301C143.84 13.6801 143.56 12.85 143 12.12C142.44 11.4 141.71 10.94 140.79 10.73L138.61 10.28V9.61005H151.53V30.34C152.59 28.94 154 27.82 155.74 26.97C157.48 26.12 159.3 25.7 161.18 25.7C162.97 25.7 164.64 25.9701 166.19 26.5201C167.74 27.0701 169.04 27.8201 170.11 28.7701C172.53 30.9601 173.74 33.68 173.74 36.93V56.99C173.74 57.94 174.02 58.78 174.57 59.5C175.12 60.22 175.86 60.6801 176.78 60.8801L178.96 61.33H178.98Z"></path>
<path fill="#010101" d="M209.89 49.06C210.86 50.31 211.34 51.73 211.34 53.33C211.34 55.12 210.67 56.77 209.34 58.27C208.01 59.77 206.25 60.95 204.08 61.82C201.9 62.69 199.6 63.1 197.18 63.06C194.76 63.16 192.45 62.79 190.25 61.94C188.05 61.09 186.19 59.87 184.7 58.27C181.22 54.83 179.47 50.34 179.47 44.8C179.47 39.26 181.09 34.6 184.33 31.11C185.68 29.66 187.34 28.53 189.3 27.71C191.26 26.89 193.33 26.47 195.51 26.47C197.69 26.47 199.76 26.88 201.72 27.71C203.68 28.53 205.36 29.67 206.77 31.11C209.19 33.66 210.69 36.97 211.27 41.06H188.18C188.04 42.26 187.96 43.48 187.96 44.73C187.96 49.27 188.78 53.15 190.43 56.37C192.07 59.59 194.37 61.2 197.33 61.2C198.97 61.2 200.44 60.55 201.72 59.25C203 57.95 203.64 56.48 203.64 54.84C203.64 54.04 203.37 53.26 202.84 52.48C202.31 51.71 201.61 51.22 200.73 51.02C200.73 50.07 201.2 49.2 202.15 48.4C203.09 47.6 204.17 47.2 205.38 47.2C207.41 47.2 208.91 47.82 209.88 49.07L209.89 49.06ZM190.69 31.36C189.6 33.53 188.86 36.09 188.48 39.03H201.69C201.3 35.39 200.58 32.72 199.51 31.02C198.3 29.07 196.85 28.1 195.15 28.1C193.26 28.1 191.77 29.19 190.68 31.35L190.69 31.36Z"></path>
<path fill="#010101" d="M245.34 12.1601C244.81 12.8601 244.54 13.7101 244.54 14.7001V56.9101C244.54 57.9101 244.83 58.7601 245.41 59.4601C245.99 60.1601 246.74 60.6101 247.66 60.8101L250.2 61.3301V62.0001H230.16V61.3301L232.7 60.8101C233.62 60.6101 234.37 60.1601 234.95 59.4601C235.53 58.7601 235.82 57.9101 235.82 56.9101V14.7001C235.82 13.7001 235.53 12.8601 234.95 12.1601C234.37 11.4601 233.62 11.0101 232.7 10.8101L230.16 10.2901V9.62006H250.2V10.2901L247.37 10.8901C246.55 11.0401 245.87 11.4601 245.34 12.1601Z"></path>
<path fill="#010101" d="M293.93 61.3301V62.0001H276.22V61.3301L278.03 60.8801C278.9 60.6301 279.62 60.1701 280.17 59.5001C280.73 58.8301 281 58.0101 281 57.0701V37.6901C281 34.7001 280.44 32.4501 279.33 30.9501C278.22 29.4501 276.72 28.7001 274.83 28.7001C273.62 28.7001 272.36 29.0701 271.05 29.8201C269.74 30.5701 268.65 31.5301 267.78 32.7001C266.91 33.8701 266.47 35.0301 266.47 36.1801V57.0601C266.47 58.0101 266.75 58.8201 267.3 59.4901C267.86 60.1601 268.57 60.6201 269.44 60.8701L271.25 61.3201V61.9901H253.54V61.3201L255.72 60.8701C256.64 60.6701 257.38 60.2101 257.93 59.4901C258.49 58.7701 258.76 57.9301 258.76 56.9801V32.5801C258.76 31.6301 258.48 30.8001 257.93 30.0701C257.37 29.3501 256.64 28.8901 255.72 28.6801L253.54 28.2301V27.5601H266.46V31.0801C267.52 29.6801 268.94 28.5601 270.71 27.7101C272.48 26.8601 274.28 26.4401 276.12 26.4401C279.75 26.4401 282.75 27.4801 285.12 29.5501C287.49 31.6201 288.68 34.3301 288.68 37.6701V56.9801C288.68 57.9301 288.96 58.7701 289.51 59.4901C290.07 60.2101 290.8 60.6701 291.72 60.8701L293.9 61.3201L293.93 61.3301Z"></path>
<path fill="#010101" d="M327.98 59.5001C328.54 60.2201 329.27 60.6801 330.19 60.8801L332.37 61.3301V62.0001H319.45V58.4801C318.29 59.9801 316.62 61.2301 314.44 62.2201C313.23 62.8201 311.68 63.1201 309.79 63.1201C307.8 63.1201 305.88 62.6801 304.02 61.8101C302.16 60.9401 300.52 59.7501 299.12 58.2601C295.83 54.5701 294.18 50.0801 294.18 44.7901C294.18 39.2001 295.85 34.6901 299.19 31.2501C300.69 29.7501 302.43 28.5801 304.42 27.7301C306.4 26.8801 308.49 26.4601 310.66 26.4601C312.35 26.4601 314.02 26.7501 315.67 27.3201C317.31 27.8901 318.57 28.6301 319.45 29.5301V14.6401C319.45 13.6901 319.17 12.8601 318.62 12.1301C318.06 11.4101 317.32 10.9501 316.41 10.7401L314.23 10.2901V9.62006H327.15V56.9901C327.15 57.9401 327.43 58.7801 327.98 59.5001ZM306.81 32.8201C305.02 35.4201 304.12 39.4101 304.12 44.7901C304.12 50.1701 304.99 53.9201 306.73 56.7601C308.13 59.0101 309.78 60.1301 311.67 60.1301C313.22 60.1301 314.69 59.5201 316.1 58.3001C317.5 57.0801 318.57 55.6401 319.29 54.0001V33.5701C318.47 32.2701 317.48 31.2601 316.31 30.5401C315.15 29.8201 313.87 29.4501 312.46 29.4501C310.28 29.4501 308.39 30.5701 306.8 32.8201H306.81Z"></path>
<path fill="#010101" d="M367.27 30.0901C366.71 30.8101 366.44 31.6501 366.44 32.6001V57.0001C366.44 57.9501 366.72 58.7901 367.27 59.5101C367.83 60.2301 368.56 60.6901 369.48 60.8901L371.66 61.3401V62.0101H358.74V58.4901C357.58 59.9401 356.15 61.0701 354.46 61.9001C352.77 62.7201 350.97 63.1301 349.09 63.1301C346.81 63.1301 344.72 62.6701 342.81 61.7501C340.9 60.8301 339.37 59.5001 338.24 57.7801C337.1 56.0601 336.53 54.1001 336.53 51.9001V32.5901C336.53 31.6401 336.25 30.8101 335.7 30.0801C335.14 29.3601 334.4 28.9001 333.49 28.6901L331.31 28.2401V27.5701H349.02V28.2401L347.21 28.6901C346.34 28.9401 345.62 29.4001 345.07 30.0801C344.51 30.7501 344.24 31.5701 344.24 32.5101V51.1401C344.24 54.2301 344.78 56.6301 345.87 58.3301C346.96 60.0301 348.47 60.8701 350.41 60.8701C351.62 60.8701 352.88 60.4801 354.18 59.7101C355.49 58.9401 356.58 57.9101 357.45 56.6401C358.32 55.3701 358.76 54.0301 358.76 52.6401V32.5101C358.76 31.5601 358.48 30.7501 357.93 30.0801C357.37 29.4101 356.66 28.9501 355.79 28.6901L353.98 28.2401V27.5701H371.69V28.2401L369.51 28.6901C368.59 28.8901 367.85 29.3501 367.3 30.0801L367.27 30.0901Z"></path>
<path fill="#010101" d="M373.94 49.62C374.93 48.3 376.3 47.64 378.04 47.64C379.98 47.64 381.29 48.15 382 49.18C382.7 50.2 383.03 51.29 382.98 52.43C382.01 52.63 381.13 53.12 380.33 53.89C379.53 54.66 379.13 55.53 379.13 56.47C379.13 57.77 379.84 58.88 381.27 59.8C382.7 60.72 384.57 61.19 386.9 61.19C389.23 61.19 391.44 60.6 393.25 59.43C395.06 58.26 395.97 56.75 395.97 54.9C395.97 53.7 395.53 52.61 394.66 51.61C393.79 50.61 392.41 49.61 390.52 48.62C389.84 48.27 388.83 47.8 387.47 47.2C386.5 46.8 385.78 46.48 385.29 46.23C380.84 44.38 377.72 42.31 375.93 40.02C374.77 38.67 374.19 37.03 374.19 35.08C374.19 33.98 374.49 32.92 375.1 31.9C375.7 30.88 376.56 29.94 377.68 29.09C378.65 28.34 380 27.72 381.75 27.22C383.49 26.72 385.26 26.47 387.05 26.47C390 26.47 392.53 26.87 394.64 27.67C396.75 28.47 398.34 29.54 399.43 30.89C400.52 32.24 401.06 33.66 401.06 35.16C401.06 36.26 400.65 37.28 399.83 38.23C399.01 39.18 397.92 39.65 396.56 39.65C396.13 39.65 395.79 39.62 395.54 39.57C394.57 39.37 393.73 38.84 393 37.96C392.27 37.08 391.96 36.28 392.06 35.53C392.88 35.48 393.61 35.13 394.24 34.48C394.87 33.83 395.18 33.06 395.18 32.16C395.18 30.86 394.49 29.84 393.11 29.09C391.73 28.34 390.1 27.97 388.21 27.97C386.22 27.97 384.46 28.52 382.91 29.62C381.36 30.72 380.59 32.04 380.59 33.59C380.59 34.69 381.04 35.68 381.93 36.58C382.83 37.48 384.22 38.38 386.1 39.28C387.07 39.78 388.88 40.58 391.54 41.67C396.04 43.52 399.21 45.69 401.05 48.18C402.21 49.58 402.79 51.32 402.79 53.42C402.79 54.62 402.45 55.79 401.77 56.94C401.09 58.09 400.12 59.14 398.87 60.08C397.71 60.98 396.15 61.72 394.19 62.29C392.23 62.86 390.23 63.15 388.2 63.15C385.83 63.15 383.43 62.81 381.01 62.14C378.59 61.47 376.56 60.43 374.91 59.03C373.26 57.63 372.44 55.89 372.44 53.79C372.44 52.34 372.94 50.96 373.93 49.64L373.94 49.62Z"></path>
<path fill="#010101" d="M420.64 12.8701C419.21 11.5501 417.58 10.6901 415.74 10.2901V9.62006H436.28V10.2901L435.7 10.4401C434.63 10.6401 433.78 11.1401 433.12 11.9401C432.47 12.7401 432.14 13.6401 432.14 14.6301C432.14 15.1801 432.26 15.7801 432.5 16.4301L445.35 49.8801L456.82 16.4301C456.97 15.8801 457.04 15.3801 457.04 14.9301C457.04 13.9801 456.77 13.1501 456.24 12.4201C455.71 11.7001 454.98 11.1901 454.06 10.8901L452.1 10.2901V9.62006H466.98V10.2901C465.04 10.8901 463.35 11.8901 461.9 13.2801C460.45 14.6801 459.38 16.3701 458.71 18.3701L443.39 63.1201H441.21L423.93 18.0701C423.15 15.9301 422.05 14.1901 420.63 12.8701H420.64Z"></path>
<path fill="#010101" d="M494.92 61.33V62H482V58.48C480.84 59.98 479.17 61.23 476.99 62.22C475.78 62.82 474.23 63.12 472.34 63.12C468.27 63.12 465.09 62.3 462.79 60.65C460.49 59 459.34 56.71 459.34 53.76C459.34 52.31 459.82 50.9 460.79 49.53C461.76 48.16 463.16 46.92 465 45.83C466.98 44.63 469.48 43.72 472.48 43.1C475.48 42.48 478.65 42.16 481.99 42.16V37.67C481.99 34.33 481.57 31.93 480.72 30.49C479.87 29.04 478.24 28.32 475.82 28.32C474.08 28.32 472.69 28.73 471.65 29.56C470.61 30.38 470.09 31.59 470.09 33.19C470.09 33.99 470.36 34.77 470.89 35.55C471.42 36.32 472.12 36.81 473 37.01C473 37.96 472.53 38.83 471.58 39.63C470.64 40.43 469.56 40.83 468.35 40.83C466.32 40.83 464.82 40.21 463.85 38.96C462.88 37.71 462.4 36.29 462.4 34.69C462.4 33.09 463.05 31.6 464.36 30.35C465.67 29.1 467.36 28.14 469.44 27.47C471.52 26.8 473.65 26.46 475.83 26.46C480.09 26.46 483.46 27.48 485.96 29.53C488.45 31.58 489.7 34.29 489.7 37.69V57C489.7 57.95 489.98 58.79 490.53 59.51C491.09 60.23 491.82 60.69 492.74 60.89L494.92 61.34V61.33ZM482 44.49C477.84 44.49 474.67 45.33 472.49 47C470.31 48.67 469.22 51.13 469.22 54.37C469.22 56.22 469.73 57.75 470.74 58.97C471.76 60.19 472.99 60.8 474.44 60.8C475.5 60.8 476.46 60.54 477.31 60.01C478.16 59.49 479.06 58.73 480.03 57.73C480.9 56.83 481.55 55.81 481.99 54.66V44.48L482 44.49Z"></path>
<path fill="#010101" d="M499.33 60.8801C500.25 60.6801 500.99 60.22 501.54 59.5C502.1 58.78 502.37 57.94 502.37 56.99V14.6301C502.37 13.6801 502.09 12.85 501.54 12.12C500.98 11.4 500.25 10.94 499.33 10.73L497.15 10.28V9.61005H510.07V56.98C510.07 57.93 510.35 58.77 510.9 59.49C511.46 60.21 512.19 60.67 513.11 60.87L515.29 61.32V61.99H497.14V61.32L499.32 60.87L499.33 60.8801Z"></path>
<path fill="#010101" d="M519.72 60.8801C520.64 60.6801 521.38 60.22 521.93 59.5C522.49 58.78 522.76 57.94 522.76 56.99V14.6301C522.76 13.6801 522.48 12.85 521.93 12.12C521.37 11.4 520.64 10.94 519.72 10.73L517.54 10.28V9.61005H530.46V56.98C530.46 57.93 530.74 58.77 531.29 59.49C531.85 60.21 532.58 60.67 533.5 60.87L535.68 61.32V61.99H517.53V61.32L519.71 60.87L519.72 60.8801Z"></path>
<path fill="#010101" d="M566.84 49.06C567.81 50.31 568.29 51.73 568.29 53.33C568.29 55.12 567.62 56.77 566.29 58.27C564.96 59.77 563.2 60.95 561.03 61.82C558.85 62.69 556.55 63.1 554.13 63.06C551.71 63.16 549.4 62.79 547.2 61.94C545 61.09 543.15 59.87 541.65 58.27C538.16 54.83 536.42 50.34 536.42 44.8C536.42 39.26 538.04 34.6 541.28 31.11C542.63 29.66 544.29 28.53 546.25 27.71C548.21 26.89 550.28 26.47 552.46 26.47C554.64 26.47 556.71 26.88 558.67 27.71C560.63 28.53 562.31 29.67 563.72 31.11C566.14 33.66 567.64 36.97 568.22 41.06H545.13C544.99 42.26 544.91 43.48 544.91 44.73C544.91 49.27 545.73 53.15 547.38 56.37C549.02 59.59 551.32 61.2 554.28 61.2C555.92 61.2 557.39 60.55 558.67 59.25C559.95 57.95 560.59 56.48 560.59 54.84C560.59 54.04 560.32 53.26 559.79 52.48C559.26 51.71 558.56 51.22 557.68 51.02C557.68 50.07 558.15 49.2 559.1 48.4C560.04 47.6 561.12 47.2 562.33 47.2C564.36 47.2 565.86 47.82 566.83 49.07L566.84 49.06ZM547.64 31.36C546.55 33.53 545.81 36.09 545.43 39.03H558.64C558.25 35.39 557.53 32.72 556.46 31.02C555.25 29.07 553.8 28.1 552.1 28.1C550.21 28.1 548.72 29.19 547.64 31.35V31.36Z"></path>
<path fill="#010101" d="M607.13 27.5801V28.2501L604.3 29.1501C603.38 29.4501 602.49 30.1601 601.61 31.2801C600.74 32.4001 599.96 33.8601 599.29 35.6601L586.66 68.3601C585.01 72.9501 583.1 76.7901 580.93 79.8901C578.75 82.9801 575.97 84.5301 572.58 84.5301C570.64 84.5301 568.99 83.9201 567.61 82.7001C566.23 81.4801 565.54 79.7701 565.54 77.5701C565.54 75.5701 566.16 74.0701 567.39 73.0401C568.62 72.0101 569.92 71.5101 571.27 71.5101C571.56 71.5101 571.9 71.5601 572.29 71.6601C572.24 71.9101 572.22 72.2601 572.22 72.7101C572.22 73.8101 572.51 74.7401 573.09 75.5201C573.67 76.2901 574.59 76.6801 575.85 76.6801C577.88 76.6801 579.77 75.3901 581.51 72.8301C583.25 70.2601 584.65 67.5001 585.72 64.5601C586.01 63.7601 586.16 62.9901 586.16 62.2401C586.16 61.3901 585.97 60.5001 585.58 59.5501L574.26 35.1501C573.39 33.3001 572.27 31.7801 570.92 30.5801C569.57 29.3801 568.04 28.6101 566.35 28.2601V27.5901H584.5V28.2601C583.58 28.4601 582.85 28.9201 582.32 29.6401C581.79 30.3601 581.52 31.2201 581.52 32.2201C581.52 33.0201 581.69 33.7901 582.03 34.5401L590.38 52.5801L597.42 34.4001C597.66 33.7501 597.78 33.2001 597.78 32.7501C597.78 31.8501 597.51 31.0301 596.98 30.2801C596.45 29.5301 595.72 29.0101 594.8 28.7101L593.35 28.2601V27.5901H607.14L607.13 27.5801Z"></path>
<path fill="#010101" d="M625.13 22.21C624.34 23.69 623.23 24.86 621.79 25.71C620.35 26.57 618.72 26.99 616.88 26.99C615.04 26.99 613.38 26.56 611.94 25.69C610.51 24.82 609.4 23.65 608.61 22.17C607.83 20.69 607.44 19.05 607.44 17.26C607.44 15.47 607.84 13.8 608.63 12.32C609.42 10.84 610.53 9.67003 611.97 8.81003C613.41 7.95003 615.04 7.53003 616.88 7.53003C618.72 7.53003 620.4 7.96003 621.83 8.83003C623.26 9.70003 624.36 10.87 625.15 12.35C625.93 13.83 626.32 15.47 626.32 17.26C626.32 19.05 625.92 20.72 625.13 22.2V22.21ZM624.26 12.68C623.57 11.32 622.58 10.24 621.31 9.46002C620.04 8.68002 618.56 8.29002 616.88 8.29002C615.2 8.29002 613.7 8.69002 612.43 9.49002C611.16 10.29 610.18 11.37 609.49 12.73C608.8 14.09 608.46 15.61 608.46 17.27C608.46 18.93 608.81 20.47 609.5 21.84C610.19 23.2 611.18 24.28 612.45 25.07C613.72 25.86 615.2 26.25 616.88 26.25C618.56 26.25 620.06 25.86 621.33 25.07C622.6 24.28 623.58 23.2 624.27 21.84C624.96 20.48 625.3 18.95 625.3 17.27C625.3 15.59 624.95 14.04 624.26 12.68ZM616.29 11.8C617.66 11.8 618.83 12.03 619.8 12.49C620.77 12.95 621.25 13.62 621.25 14.52C621.25 15.32 620.89 15.92 620.17 16.32C619.45 16.72 618.52 16.98 617.37 17.09C618.37 17.17 619.16 17.35 619.73 17.61C620.3 17.88 620.65 18.4 620.76 19.18L621.15 21.87C621.2 22.24 621.33 22.42 621.54 22.42C621.72 22.42 621.89 22.29 622.07 22.02L622.41 22.2C622.26 22.43 622.05 22.61 621.78 22.72C621.51 22.84 621.21 22.9 620.88 22.9C620.4 22.9 619.96 22.74 619.57 22.43C619.18 22.12 618.95 21.68 618.87 21.13L618.58 19.19C618.47 18.41 618.25 17.88 617.93 17.62C617.61 17.35 617.06 17.22 616.28 17.22H615.58V21.61C615.58 21.81 615.64 21.99 615.75 22.16C615.86 22.33 616.02 22.42 616.21 22.43L616.74 22.5V22.65H612.09V22.5L612.62 22.43C612.81 22.41 612.97 22.32 613.09 22.16C613.21 22 613.27 21.81 613.27 21.61V12.88C613.27 12.68 613.21 12.5 613.09 12.34C612.97 12.18 612.81 12.09 612.62 12.05L612.09 11.95V11.8H616.28H616.29ZM616.29 12.13H615.59V16.95H616.29C618.1 16.95 619 16.14 619 14.53C619 12.92 618.1 12.13 616.29 12.13Z"></path>
<path fill="#136735" d="M70.73 22.52V0H0V22.52H4.91V5.06H32.77V12.87H12.49V22.54H17.39V17.92H32.77V44.44L15.73 26.88H0V72.6H70.73V26.88H55L37.96 44.44V17.92H53.34V22.54H58.24V12.87H37.96V5.06H65.82V22.52H70.73ZM57.04 31.94H65.83V67.56H4.91V31.94H13.7L32.77 51.6V55.61H17.39V50.99H12.49V60.66H58.26V50.99H53.36V55.61H37.98V51.6L57.05 31.94H57.04Z"></path>
</svg>
